<?xml version="1.0" encoding="utf-8"?>
<svg xmlns="http://www.w3.org/2000/svg" viewBox="0 0 500 500">
  <ellipse cx="251.821" cy="248.047" rx="249.06" ry="241.025" fill="#FF8C68" style=""/>
  <path d="M 231.994 111.354 C 172.944 111.354 124.844 162.462 124.844 225.195 C 124.844 287.928 172.944 339.034 231.994 339.034 C 257.678 339.034 281.252 329.354 299.731 313.274 L 363.702 381.233 C 364.698 382.327 365.872 383.194 367.192 383.807 C 368.494 384.4 369.908 384.723 371.323 384.739 C 372.755 384.754 374.169 384.465 375.489 383.901 C 376.806 383.322 378.015 382.471 379.01 381.409 C 380.023 380.331 380.829 379.061 381.359 377.663 C 381.906 376.248 382.161 374.751 382.147 373.24 C 382.147 371.728 381.84 370.233 381.28 368.833 C 380.716 367.451 379.895 366.196 378.864 365.136 L 314.893 297.174 C 330.026 277.541 339.144 252.486 339.144 225.195 C 339.144 162.462 291.044 111.354 231.994 111.354 Z M 231.994 134.125 C 279.469 134.125 317.709 174.762 317.709 225.195 C 317.709 275.626 279.469 316.264 231.994 316.264 C 184.522 316.264 146.281 275.626 146.281 225.195 C 146.281 174.762 184.522 134.125 231.994 134.125 Z" fill="white" style=""/>
</svg>